<?xml version="1.0" encoding="UTF-8" standalone="no"?>
<!-- Generator: Adobe Illustrator 16.0.0, SVG Export Plug-In . SVG Version: 6.00 Build 0)  -->

<svg
   xmlns:dc="http://purl.org/dc/elements/1.1/"
   xmlns:cc="http://creativecommons.org/ns#"
   xmlns:rdf="http://www.w3.org/1999/02/22-rdf-syntax-ns#"
   xmlns:svg="http://www.w3.org/2000/svg"
   xmlns="http://www.w3.org/2000/svg"
   xmlns:sodipodi="http://sodipodi.sourceforge.net/DTD/sodipodi-0.dtd"
   xmlns:inkscape="http://www.inkscape.org/namespaces/inkscape"
   version="1.1"
   id="Ebene_1"
   x="0px"
   y="0px"
   width="1280px"
   height="720px"
   viewBox="0 0 1280 720"
   enable-background="new 0 0 1280 720"
   xml:space="preserve"
   inkscape:version="0.48.4 r9939"
   sodipodi:docname="emulationstation-on-steam-logo.svg"
   inkscape:export-filename="/home/paalfe/Downloads/emulationstation-logo.png"
   inkscape:export-xdpi="89.980003"
   inkscape:export-ydpi="89.980003"><metadata
     id="metadata67"><rdf:RDF><cc:Work
         rdf:about=""><dc:format>image/svg+xml</dc:format><dc:type
           rdf:resource="http://purl.org/dc/dcmitype/StillImage" /><dc:title></dc:title></cc:Work></rdf:RDF></metadata><defs
     id="defs65" /><sodipodi:namedview
     pagecolor="#ffffff"
     bordercolor="#666666"
     borderopacity="1"
     objecttolerance="10"
     gridtolerance="10"
     guidetolerance="10"
     inkscape:pageopacity="0"
     inkscape:pageshadow="2"
     inkscape:window-width="1855"
     inkscape:window-height="1056"
     id="namedview63"
     showgrid="false"
     inkscape:zoom="0.70710678"
     inkscape:cx="757.44431"
     inkscape:cy="281.55711"
     inkscape:window-x="65"
     inkscape:window-y="24"
     inkscape:window-maximized="1"
     inkscape:current-layer="Ebene_1" /><rect
     style="fill:#ffffff;fill-rule:evenodd;stroke:#000000;stroke-width:0;stroke-linecap:butt;stroke-linejoin:miter;stroke-miterlimit:4;stroke-opacity:1;stroke-dasharray:none"
     id="rect3063"
     width="460"
     height="215"
     x="340.82547"
     y="233.90048" /><g
     id="g3988"
     transform="matrix(1.5344768,0,0,1.5344768,-75.639847,-193.38013)"><path
       style="fill:#c90012"
       inkscape:connector-curvature="0"
       id="path3"
       d="m 495.77916,370.85724 0,0 0,0 z" /><path
       style="fill:#c90012"
       inkscape:connector-curvature="0"
       id="path5"
       d="m 495.77916,341.07191 0,0 0,0 z" /><path
       style="fill:#c90012"
       inkscape:connector-curvature="0"
       id="path7"
       d="m 495.77916,311.27615 0,0 0,0 z" /><path
       style="fill:#c90012"
       inkscape:connector-curvature="0"
       id="path9"
       d="m 495.77916,326.17115 0,0 0,0 z" /><path
       style="fill:#c90012"
       inkscape:connector-curvature="0"
       id="path11"
       d="m 495.77916,385.75225 0,0 0,0 z" /><path
       style="fill:#c90012"
       inkscape:connector-curvature="0"
       id="path13"
       d="m 495.77916,355.95936 0,0 0,0 z" /><path
       style="fill:#c90012"
       inkscape:connector-curvature="0"
       id="path15"
       d="m 495.77916,296.37503 0,0 0,0 z" /><path
       style="fill:#004e73"
       inkscape:connector-curvature="0"
       id="path17"
       d="m 495.77916,300.36733 c 0,-2.19578 -1.79651,-3.99194 -3.99085,-3.99194 H 365.69772 c -2.19649,0 -5.26268,1.27003 -6.81482,2.82289 l -9.2521,9.2521 c -1.55322,1.55286 -2.82289,4.61905 -2.82289,6.81482 v 81.38688 c 0,2.19615 1.79652,3.9923 3.99122,3.9923 h 126.09022 c 2.1947,0 5.26232,-1.27039 6.81482,-2.82253 l 9.25067,-9.24887 c 1.5525,-1.55142 2.82253,-4.61904 2.82253,-6.81554 l 0.002,-81.39011 z" /><path
       style="opacity:0.2"
       inkscape:connector-curvature="0"
       id="path19"
       d="m 478.05875,353.13719 -9.24671,-9.24635 c -1.55214,-1.55178 -4.6194,-2.82253 -6.81482,-2.82181 h -6.91689 c -2.19649,3.6e-4 -3.99265,3.6e-4 -3.99265,3.6e-4 0,0 1.26931,-1.27003 2.82253,-2.82289 l 24.1489,-24.14747 c 1.5525,-1.55285 1.02566,-2.82288 -1.16904,-2.82288 h -36.7051 c -2.19614,0 -5.26233,1.27003 -6.81482,2.82288 l -83.63621,83.62615 c -0.65586,0.65478 -1.26392,1.26284 -1.75051,1.74908 0.72306,0.72234 1.71996,1.17084 2.81606,1.17084 0.002,0 0.004,0 0.006,0 h 35.92058 60.37065 c 2.19613,0 3.99696,-0.004 4.00091,-0.008 0.005,-0.006 1.27902,-1.28009 2.83188,-2.83187 l 24.12985,-24.12555 c 1.5525,-1.55106 2.82218,-4.61868 2.82218,-6.81482 v -6.91257 c -3.6e-4,-2.1965 -1.27004,-5.26412 -2.82254,-6.81483 z"
       enable-background="new    " /><path
       style="fill:#ffffff"
       inkscape:connector-curvature="0"
       id="path21"
       d="m 440.1821,355.96188 c -2.19507,0 -5.26233,-1.27075 -6.81375,-2.82361 l -9.23953,-9.2424 c -1.55285,-1.55286 -2.8236,-4.61976 -2.82648,-6.8159 l -0.004,-6.91653 c -0.003,-2.19578 1.2668,-5.26232 2.81966,-6.81518 l 9.25066,-9.24923 c 1.55286,-1.55285 4.61868,-2.82288 6.81483,-2.82288 h 36.70653 c 2.1947,0 2.72154,1.27003 1.16904,2.82288 l -9.25066,9.24923 c -1.55286,1.55286 -4.61869,2.82289 -6.81482,2.82289 h -21.80975 c -2.1965,0 -3.99265,1.79616 -3.99265,3.99193 v 6.91653 c 0,2.19578 1.79615,3.99194 3.99122,3.99122 l 21.81476,-0.003 c 2.19506,-7.2e-4 5.26269,1.26967 6.81482,2.82181 l 9.24671,9.24636 c 1.5525,1.5507 2.82218,4.61832 2.82218,6.81482 v 6.91257 c 0,2.19578 -1.26932,5.26341 -2.82218,6.81483 l -9.25066,9.2503 c -1.55286,1.55142 -4.61868,2.82253 -6.81482,2.82253 h -21.80974 c -2.1965,0 -5.26232,-1.27075 -6.81482,-2.82253 l -9.25067,-9.2503 c -1.5525,-1.55107 -1.02709,-2.82254 1.16905,-2.82254 h 36.70654 c 2.19649,0 3.99265,-1.79615 3.99265,-3.99229 v -6.91257 c 0,-2.1965 0,-3.99266 10e-4,-3.99266 0.001,0 -1.79472,0 -3.99014,0 l -21.81476,0.003 z" /><g
       style="opacity:0.2"
       transform="matrix(0.35937455,0,0,0.35937455,340.69854,211.97875)"
       id="g23"><path
         inkscape:connector-curvature="0"
         id="path25"
         d="m 17.008,370.877 c 0,-6.11 0,-11.238 0,-11.393 0,-0.155 3.532,-3.818 7.854,-8.138 L 92.047,284.16 c 4.321,-4.321 12.855,-7.855 18.963,-7.855 h 102.15 c 6.108,0 7.574,3.534 3.253,7.855 l -67.197,67.182 c -4.32,4.321 -7.853,7.855 -7.853,7.855 0,0 4.998,0.002 11.11,0.006 l 19.228,0.007 c 6.108,0.004 10.75,4.993 10.318,11.086 l -1.114,15.592 c -0.433,6.092 -1.707,11.998 -2.833,13.123 -1.125,1.125 -5.576,5.58 -9.896,9.896 l -25.201,25.201 c -4.32,4.316 -7.885,7.885 -7.922,7.918 -0.034,0.035 4.933,0.065 11.041,0.062 h 17.979 c 6.108,-0.004 14.784,3.379 19.281,7.518 l 26.836,24.695 c 4.497,4.137 8.181,7.623 8.058,7.75 -0.126,0.126 -3.766,3.762 -8.087,8.083 l -34.827,34.849 -147.212,0.002 c -6.107,0 -11.105,-4.998 -11.105,-11.11 L 17.008,370.877 z" /></g><path
       style="fill:#ffffff"
       inkscape:connector-curvature="0"
       id="path27"
       d="m 380.59273,370.85724 c -2.1947,0 -3.99086,-1.79615 -3.99086,-3.99229 v -6.91257 c 0,-2.1965 1.79616,-3.99266 3.99086,-3.99266 h 21.81045 c 2.19506,0 3.99122,-1.79615 3.99122,-3.99229 V 345.066 c 0,-2.1965 -1.79616,-3.99266 -3.99122,-3.99266 h -21.81045 c -2.1947,0 -3.99086,-1.79615 -3.99086,-3.99193 v -6.91653 c 0,-2.19578 1.79616,-3.99193 3.99086,-3.99193 h 21.81045 c 2.19506,0 5.26233,-1.27003 6.81519,-2.82253 l 9.25353,-9.25067 c 1.55287,-1.55214 1.02602,-2.82217 -1.16904,-2.82217 h -36.71013 c -2.1947,0 -5.26232,1.27003 -6.81482,2.82289 l -9.24923,9.24851 c -1.5525,1.55286 -2.82361,4.6194 -2.82361,6.81518 v 36.70115 c 0,2.19614 1.27111,5.2634 2.82361,6.81482 l 9.24923,9.25031 c 1.55285,1.55142 4.61976,2.82253 6.81482,2.82253 h 36.70761 c 2.1965,0 2.72191,-1.27075 1.16905,-2.82325 l -9.25067,-9.25174 c -1.55249,-1.55286 -4.6194,-2.82361 -6.81518,-2.82361 l -21.81081,0.003 z" /></g></svg>