<?xml version="1.0" encoding="UTF-8" standalone="no"?>
<!-- Generator: Adobe Illustrator 16.0.0, SVG Export Plug-In . SVG Version: 6.00 Build 0)  -->

<svg
   xmlns:dc="http://purl.org/dc/elements/1.1/"
   xmlns:cc="http://creativecommons.org/ns#"
   xmlns:rdf="http://www.w3.org/1999/02/22-rdf-syntax-ns#"
   xmlns:svg="http://www.w3.org/2000/svg"
   xmlns="http://www.w3.org/2000/svg"
   xmlns:sodipodi="http://sodipodi.sourceforge.net/DTD/sodipodi-0.dtd"
   xmlns:inkscape="http://www.inkscape.org/namespaces/inkscape"
   version="1.1"
   id="Ebene_1"
   x="0px"
   y="0px"
   width="1280px"
   height="720px"
   viewBox="0 0 1280 720"
   enable-background="new 0 0 1280 720"
   xml:space="preserve"
   inkscape:version="0.48.4 r9939"
   sodipodi:docname="emulationstation-on-steam-text.svg"
   inkscape:export-filename="/home/paalfe/Downloads/emulationstation-text.png"
   inkscape:export-xdpi="89.980003"
   inkscape:export-ydpi="89.980003"><metadata
     id="metadata67"><rdf:RDF><cc:Work
         rdf:about=""><dc:format>image/svg+xml</dc:format><dc:type
           rdf:resource="http://purl.org/dc/dcmitype/StillImage" /><dc:title></dc:title></cc:Work></rdf:RDF></metadata><defs
     id="defs65" /><sodipodi:namedview
     pagecolor="#ffffff"
     bordercolor="#666666"
     borderopacity="1"
     objecttolerance="10"
     gridtolerance="10"
     guidetolerance="10"
     inkscape:pageopacity="0"
     inkscape:pageshadow="2"
     inkscape:window-width="1855"
     inkscape:window-height="1056"
     id="namedview63"
     showgrid="false"
     inkscape:zoom="0.70710678"
     inkscape:cx="757.44431"
     inkscape:cy="281.55711"
     inkscape:window-x="65"
     inkscape:window-y="24"
     inkscape:window-maximized="1"
     inkscape:current-layer="Ebene_1" /><rect
     style="fill:#ffffff;fill-rule:evenodd;stroke:#000000;stroke-width:0;stroke-linecap:butt;stroke-linejoin:miter;stroke-miterlimit:4;stroke-opacity:1;stroke-dasharray:none"
     id="rect3063"
     width="460"
     height="215"
     x="340.82547"
     y="233.90048" /><g
     id="g3888"
     transform="translate(340.69854,-222.36715)"><path
       style="fill:#c90012"
       inkscape:connector-curvature="0"
       id="path3"
       d="m 155.08062,593.22439 0,0 0,0 z" /><path
       style="fill:#c90012"
       inkscape:connector-curvature="0"
       id="path5"
       d="m 155.08062,563.43906 0,0 0,0 z" /><path
       style="fill:#c90012"
       inkscape:connector-curvature="0"
       id="path7"
       d="m 155.08062,533.6433 0,0 0,0 z" /><path
       style="fill:#c90012"
       inkscape:connector-curvature="0"
       id="path9"
       d="m 155.08062,548.5383 0,0 0,0 z" /><path
       style="fill:#c90012"
       inkscape:connector-curvature="0"
       id="path11"
       d="m 155.08062,608.1194 0,0 0,0 z" /><path
       style="fill:#c90012"
       inkscape:connector-curvature="0"
       id="path13"
       d="m 155.08062,578.32651 0,0 0,0 z" /><path
       style="fill:#c90012"
       inkscape:connector-curvature="0"
       id="path15"
       d="m 155.08062,518.74218 0,0 0,0 z" /><path
       style="fill:#004e73"
       inkscape:connector-curvature="0"
       id="path17"
       d="m 155.08062,522.73448 c 0,-2.19578 -1.79651,-3.99194 -3.99085,-3.99194 H 24.999185 c -2.196498,0 -5.262683,1.27003 -6.814823,2.82289 l -9.2521028,9.2521 c -1.5532175,1.55286 -2.8228885,4.61905 -2.8228885,6.81482 v 81.38688 c 0,2.19615 1.7965144,3.9923 3.9912163,3.9923 H 136.19081 c 2.1947,0 5.26232,-1.27039 6.81482,-2.82253 l 9.25067,-9.24887 c 1.5525,-1.55142 2.82253,-4.61904 2.82253,-6.81554 l 0.002,-81.39011 z" /><path
       style="opacity:0.2"
       inkscape:connector-curvature="0"
       id="path19"
       d="m 137.36021,575.50434 -9.24671,-9.24635 c -1.55214,-1.55178 -4.6194,-2.82253 -6.81482,-2.82181 h -6.91689 c -2.19649,3.6e-4 -3.99265,3.6e-4 -3.99265,3.6e-4 0,0 1.26931,-1.27003 2.82253,-2.82289 l 24.1489,-24.14747 c 1.5525,-1.55285 1.02566,-2.82288 -1.16904,-2.82288 H 99.486431 c -2.196142,0 -5.262326,1.27003 -6.814824,2.82288 L 9.0353997,620.09233 c -0.6558589,0.65478 -1.263921,1.26284 -1.7505142,1.74908 0.723062,0.72234 1.7199674,1.17084 2.8160605,1.17084 0.0018,0 0.0036,0 0.0057,0 h 35.920585 60.370649 c 2.19613,0 3.99696,-0.004 4.00091,-0.008 0.005,-0.006 1.27902,-1.28009 2.83188,-2.83187 l 24.12985,-24.12555 c 1.5525,-1.55106 2.82218,-4.61868 2.82218,-6.81482 v -6.91257 c -3.6e-4,-2.1965 -1.27004,-5.26412 -2.82254,-6.81483 z"
       enable-background="new    " /><path
       style="fill:#ffffff"
       inkscape:connector-curvature="0"
       id="path21"
       d="m 99.483556,578.32903 c -2.195064,0 -5.262326,-1.27075 -6.813746,-2.82361 l -9.239527,-9.2424 c -1.552857,-1.55286 -2.823605,-4.61976 -2.82648,-6.8159 l -0.0043,-6.91653 c -0.0029,-2.19578 1.266795,-5.26232 2.819653,-6.81518 l 9.250667,-9.24923 c 1.552858,-1.55285 4.618682,-2.82288 6.814824,-2.82288 h 36.706533 c 2.1947,0 2.72154,1.27003 1.16904,2.82288 l -9.25066,9.24923 c -1.55286,1.55286 -4.61869,2.82289 -6.81482,2.82289 H 99.484993 c -2.196501,0 -3.992655,1.79616 -3.992655,3.99193 v 6.91653 c 0,2.19578 1.796154,3.99194 3.991218,3.99122 l 21.814764,-0.003 c 2.19506,-7.2e-4 5.26269,1.26967 6.81482,2.82181 l 9.24671,9.24636 c 1.5525,1.5507 2.82218,4.61832 2.82218,6.81482 v 6.91257 c 0,2.19578 -1.26932,5.26341 -2.82218,6.81483 l -9.25066,9.2503 c -1.55286,1.55142 -4.61868,2.82253 -6.81482,2.82253 H 99.484634 c -2.196501,0 -5.262326,-1.27075 -6.814824,-2.82253 l -9.250667,-9.2503 c -1.552498,-1.55107 -1.027093,-2.82254 1.169045,-2.82254 h 36.706542 c 2.19649,0 3.99265,-1.79615 3.99265,-3.99229 v -6.91257 c 0,-2.1965 0,-3.99266 0.001,-3.99266 10e-4,0 -1.79472,0 -3.99014,0 l -21.814764,0.003 z" /><g
       style="opacity:0.2"
       transform="matrix(0.35937455,0,0,0.35937455,0,434.3459)"
       id="g23"><path
         inkscape:connector-curvature="0"
         id="path25"
         d="m 17.008,370.877 c 0,-6.11 0,-11.238 0,-11.393 0,-0.155 3.532,-3.818 7.854,-8.138 L 92.047,284.16 c 4.321,-4.321 12.855,-7.855 18.963,-7.855 h 102.15 c 6.108,0 7.574,3.534 3.253,7.855 l -67.197,67.182 c -4.32,4.321 -7.853,7.855 -7.853,7.855 0,0 4.998,0.002 11.11,0.006 l 19.228,0.007 c 6.108,0.004 10.75,4.993 10.318,11.086 l -1.114,15.592 c -0.433,6.092 -1.707,11.998 -2.833,13.123 -1.125,1.125 -5.576,5.58 -9.896,9.896 l -25.201,25.201 c -4.32,4.316 -7.885,7.885 -7.922,7.918 -0.034,0.035 4.933,0.065 11.041,0.062 h 17.979 c 6.108,-0.004 14.784,3.379 19.281,7.518 l 26.836,24.695 c 4.497,4.137 8.181,7.623 8.058,7.75 -0.126,0.126 -3.766,3.762 -8.087,8.083 l -34.827,34.849 -147.212,0.002 c -6.107,0 -11.105,-4.998 -11.105,-11.11 L 17.008,370.877 z" /></g><path
       style="fill:#ffffff"
       inkscape:connector-curvature="0"
       id="path27"
       d="m 39.894191,593.22439 c -2.194701,0 -3.990857,-1.79615 -3.990857,-3.99229 v -6.91257 c 0,-2.1965 1.796156,-3.99266 3.990857,-3.99266 h 21.810452 c 2.19506,0 3.991218,-1.79615 3.991218,-3.99229 v -6.90143 c 0,-2.1965 -1.796158,-3.99266 -3.991218,-3.99266 H 39.894191 c -2.194701,0 -3.990857,-1.79615 -3.990857,-3.99193 v -6.91653 c 0,-2.19578 1.796156,-3.99193 3.990857,-3.99193 h 21.810452 c 2.19506,0 5.262326,-1.27003 6.815183,-2.82253 l 9.253539,-9.25067 c 1.552861,-1.55214 1.026018,-2.82217 -1.169045,-2.82217 H 39.894191 c -2.194701,0 -5.262325,1.27003 -6.814824,2.82289 l -9.249228,9.24851 c -1.552499,1.55286 -2.823607,4.6194 -2.823607,6.81518 v 36.70115 c 0,2.19614 1.271108,5.2634 2.823607,6.81482 l 9.249228,9.25031 c 1.552858,1.55142 4.619764,2.82253 6.814824,2.82253 h 36.707613 c 2.196501,0 2.721906,-1.27075 1.169045,-2.82325 l -9.250664,-9.25174 c -1.552498,-1.55286 -4.619404,-2.82361 -6.815182,-2.82361 l -21.810812,0.003 z" /><g
       transform="matrix(0.35937455,0,0,0.35937455,0,434.3459)"
       id="g29"><path
         inkscape:connector-curvature="0"
         id="path31"
         d="m 558.605,326.562 c -1.623,3.8 -3.85,7.115 -6.682,9.943 -2.832,2.836 -6.146,5.06 -9.947,6.682 -3.796,1.623 -7.838,2.434 -12.117,2.434 h -8.496 c -4.283,0 -8.324,-0.812 -12.121,-2.434 -3.8,-1.623 -7.115,-3.846 -9.942,-6.682 -2.836,-2.828 -5.063,-6.143 -6.683,-9.943 -1.626,-3.796 -2.434,-7.838 -2.434,-12.121 v -47.858 c 0,-4.282 0.808,-8.324 2.434,-12.12 1.619,-3.801 3.847,-7.115 6.683,-9.947 2.827,-2.833 6.143,-5.056 9.942,-6.682 3.796,-1.619 7.838,-2.434 12.121,-2.434 h 8.496 c 4.279,0 8.32,0.815 12.117,2.434 3.8,1.626 7.115,3.85 9.947,6.682 2.832,2.832 5.06,6.146 6.682,9.947 1.623,3.796 2.434,7.838 2.434,12.12 v 24.964 h -58.114 v 23.618 c 0,2.556 0.481,4.956 1.45,7.202 0.965,2.243 2.277,4.195 3.935,5.852 1.661,1.657 3.609,2.97 5.855,3.938 2.243,0.964 4.643,1.447 7.199,1.447 h 8.496 c 2.553,0 4.952,-0.482 7.199,-1.447 2.243,-0.968 4.195,-2.281 5.852,-3.938 1.657,-1.657 2.971,-3.609 3.938,-5.852 0.964,-2.246 1.451,-4.646 1.451,-7.202 v -7.042 l 12.739,2.07 v 4.248 c -10e-4,4.283 -0.811,8.324 -2.434,12.121 z m -10.306,-60.707 c 0,-2.553 -0.486,-4.952 -1.451,-7.199 -0.968,-2.243 -2.281,-4.194 -3.938,-5.852 -1.656,-1.658 -3.608,-2.97 -5.852,-3.938 -2.247,-0.964 -4.646,-1.45 -7.199,-1.45 h -8.496 c -2.557,0 -4.956,0.486 -7.199,1.45 -2.246,0.969 -4.194,2.281 -5.855,3.938 -1.657,1.657 -2.97,3.609 -3.934,5.852 -0.969,2.247 -1.451,4.646 -1.451,7.199 V 281.6 h 45.375 l 0,-15.745 0,0 z" /><path
         inkscape:connector-curvature="0"
         id="path33"
         d="m 698.506,343.55 v -77.695 c 0,-2.553 -0.482,-4.952 -1.45,-7.199 -0.969,-2.243 -2.277,-4.194 -3.938,-5.852 -1.652,-1.657 -3.608,-2.97 -5.852,-3.938 -2.247,-0.964 -4.646,-1.45 -7.199,-1.45 h -6.317 c -2.558,0 -4.956,0.486 -7.202,1.45 -2.243,0.969 -4.21,2.281 -5.902,3.938 -1.695,1.657 -3.023,3.609 -3.991,5.852 -0.965,2.247 -1.445,4.646 -1.445,7.199 v 77.695 h -12.643 v -77.695 c 0,-2.553 -0.482,-4.952 -1.45,-7.199 -0.968,-2.243 -2.296,-4.194 -3.987,-5.852 -1.691,-1.657 -3.658,-2.97 -5.905,-3.938 -2.242,-0.964 -4.643,-1.45 -7.199,-1.45 h -6.318 c -2.557,0 -4.956,0.486 -7.198,1.45 -2.247,0.969 -4.195,2.281 -5.855,3.938 -1.657,1.657 -2.97,3.609 -3.935,5.852 -0.968,2.247 -1.45,4.646 -1.45,7.199 V 343.55 H 586.529 V 237.474 h 4.244 l 6.943,10.773 c 2.899,-3.938 6.54,-7.061 10.93,-9.376 4.382,-2.312 9.166,-3.471 14.344,-3.471 h 1.037 c 6.009,0 11.428,1.485 16.266,4.455 4.833,2.97 8.562,6.908 11.187,11.811 1.312,-2.419 2.936,-4.627 4.869,-6.629 1.933,-2.005 4.075,-3.712 6.422,-5.128 2.35,-1.416 4.906,-2.522 7.669,-3.318 2.76,-0.792 5.626,-1.19 8.596,-1.19 h 1.037 c 4.279,0 8.32,0.815 12.121,2.434 3.796,1.626 7.114,3.85 9.946,6.682 2.828,2.832 5.056,6.146 6.683,9.947 1.618,3.796 2.435,7.838 2.435,12.12 v 76.968 h -12.747 v -0.002 z" /><path
         inkscape:connector-curvature="0"
         id="path35"
         d="m 803.343,343.55 -7.046,-10.773 c -2.901,3.938 -6.525,7.061 -10.878,9.376 -4.348,2.312 -9.115,3.467 -14.294,3.467 h -3.211 c -4.286,0 -8.323,-0.812 -12.12,-2.434 -3.801,-1.623 -7.114,-3.846 -9.946,-6.682 -2.832,-2.828 -5.061,-6.143 -6.684,-9.943 -1.622,-3.796 -2.434,-7.838 -2.434,-12.121 v -76.966 h 12.744 v 77.691 c 0,2.556 0.481,4.956 1.446,7.202 0.969,2.243 2.28,4.195 3.938,5.852 1.657,1.657 3.609,2.97 5.852,3.938 2.242,0.964 4.646,1.447 7.203,1.447 h 8.496 c 2.549,0 4.952,-0.482 7.194,-1.447 2.243,-0.968 4.198,-2.281 5.854,-3.938 1.657,-1.657 2.971,-3.609 3.936,-5.852 0.969,-2.246 1.454,-4.646 1.454,-7.202 v -77.691 h 12.736 V 343.55 h -4.24 z" /><path
         inkscape:connector-curvature="0"
         id="path37"
         d="M 837.319,343.55 V 195 h 12.74 v 148.55 h -12.74 z" /><path
         inkscape:connector-curvature="0"
         id="path39"
         d="m 946.404,343.55 -7.046,-10.567 c -2.9,3.8 -6.525,6.854 -10.881,9.17 -4.348,2.312 -9.116,3.467 -14.29,3.467 h -3.215 c -4.282,0 -8.32,-0.812 -12.116,-2.434 -3.805,-1.623 -7.119,-3.846 -9.947,-6.682 -2.836,-2.828 -5.062,-6.143 -6.682,-9.943 -1.627,-3.796 -2.436,-7.838 -2.436,-12.121 v -1.037 c 0,-4.279 0.809,-8.32 2.436,-12.121 1.618,-3.796 3.846,-7.111 6.682,-9.943 2.828,-2.832 6.144,-5.06 9.947,-6.682 3.796,-1.623 7.834,-2.434 12.116,-2.434 h 26.936 v -16.368 c 0,-2.553 -0.481,-4.952 -1.45,-7.199 -0.969,-2.243 -2.276,-4.194 -3.938,-5.852 -1.653,-1.657 -3.609,-2.97 -5.853,-3.938 -2.246,-0.964 -4.646,-1.45 -7.198,-1.45 h -7.459 c -2.558,0 -4.956,0.486 -7.198,1.45 -2.247,0.969 -4.195,2.281 -5.856,3.938 -1.652,1.657 -2.97,3.609 -3.934,5.852 -0.969,2.247 -1.451,4.646 -1.451,7.199 v 3.835 l -12.74,-2.075 v -1.033 c 0,-4.282 0.812,-8.324 2.436,-12.12 1.622,-3.801 3.85,-7.115 6.682,-9.947 2.828,-2.833 6.146,-5.056 9.943,-6.682 3.796,-1.619 7.838,-2.434 12.12,-2.434 h 7.459 c 4.278,0 8.319,0.815 12.117,2.434 3.8,1.626 7.113,3.85 9.949,6.682 2.828,2.832 5.057,6.146 6.68,9.947 1.622,3.796 2.434,7.838 2.434,12.12 v 76.968 h -4.247 l 0,0 z m -8.497,-51.383 h -26.936 c -2.558,0 -4.956,0.486 -7.199,1.451 -2.246,0.968 -4.194,2.296 -5.852,3.988 -1.661,1.695 -2.971,3.663 -3.938,5.905 -0.969,2.247 -1.451,4.646 -1.451,7.203 v 4.451 c 0,2.556 0.482,4.956 1.451,7.202 0.968,2.243 2.276,4.195 3.938,5.852 1.656,1.657 3.604,2.97 5.852,3.938 2.243,0.964 4.643,1.447 7.199,1.447 h 8.496 c 2.553,0 4.952,-0.482 7.198,-1.447 2.242,-0.968 4.198,-2.281 5.853,-3.938 1.661,-1.657 2.97,-3.609 3.938,-5.852 0.969,-2.246 1.45,-4.646 1.45,-7.202 l 0.001,-22.998 0,0 z" /><path
         inkscape:connector-curvature="0"
         id="path41"
         d="m 1014.772,343.55 c -3.865,0 -7.509,-0.724 -10.931,-2.174 -3.418,-1.451 -6.389,-3.456 -8.909,-6.009 -2.52,-2.557 -4.524,-5.526 -6.009,-8.91 -1.485,-3.383 -2.225,-7.007 -2.225,-10.876 V 249.59 h -19.062 v -12.116 h 19.062 v -25.485 l 12.74,-2.07 v 27.555 h 26.936 v 12.116 h -26.936 v 66.611 c 0,2.143 0.398,4.129 1.194,5.955 0.788,1.833 1.879,3.437 3.261,4.818 1.382,1.381 3.004,2.472 4.868,3.264 1.866,0.792 3.864,1.189 6.009,1.189 h 11.604 v 12.121 l -11.602,0.002 0,0 z" /><path
         inkscape:connector-curvature="0"
         id="path43"
         d="M 1052.996,211.989 V 195 h 14.815 v 16.989 h -14.815 z m 1.037,131.561 V 237.474 h 12.741 V 343.55 h -12.741 z" /><path
         inkscape:connector-curvature="0"
         id="path45"
         d="m 1164.93,326.562 c -1.623,3.8 -3.852,7.115 -6.679,9.943 -2.837,2.836 -6.15,5.06 -9.95,6.682 -3.797,1.623 -7.838,2.434 -12.117,2.434 h -8.496 c -4.282,0 -8.319,-0.812 -12.116,-2.434 -3.805,-1.623 -7.119,-3.846 -9.946,-6.682 -2.837,-2.828 -5.062,-6.143 -6.683,-9.943 -1.627,-3.796 -2.435,-7.838 -2.435,-12.121 v -47.858 c 0,-4.282 0.808,-8.324 2.435,-12.12 1.619,-3.801 3.846,-7.115 6.683,-9.947 2.827,-2.833 6.143,-5.056 9.946,-6.682 3.797,-1.619 7.834,-2.434 12.116,-2.434 h 8.496 c 4.279,0 8.32,0.815 12.117,2.434 3.8,1.626 7.114,3.85 9.95,6.682 2.827,2.832 5.056,6.146 6.679,9.947 1.622,3.796 2.434,7.838 2.434,12.12 v 47.858 c -10e-4,4.283 -0.812,8.324 -2.434,12.121 z m -10.308,-60.707 c 0,-2.553 -0.481,-4.952 -1.449,-7.199 -0.97,-2.243 -2.277,-4.194 -3.938,-5.852 -1.653,-1.657 -3.608,-2.97 -5.852,-3.938 -2.246,-0.964 -4.646,-1.45 -7.199,-1.45 h -8.496 c -2.557,0 -4.956,0.486 -7.198,1.45 -2.247,0.969 -4.194,2.281 -5.852,3.938 -1.661,1.657 -2.971,3.609 -3.938,5.852 -0.969,2.247 -1.45,4.646 -1.45,7.199 v 49.309 c 0,2.556 0.481,4.956 1.45,7.202 0.968,2.243 2.277,4.195 3.938,5.852 1.656,1.657 3.604,2.97 5.852,3.938 2.242,0.964 4.643,1.447 7.198,1.447 h 8.496 c 2.553,0 4.953,-0.482 7.199,-1.447 2.243,-0.968 4.197,-2.281 5.852,-3.938 1.661,-1.657 2.97,-3.609 3.938,-5.852 0.968,-2.246 1.449,-4.646 1.449,-7.202 v -49.309 z" /><path
         inkscape:connector-curvature="0"
         id="path47"
         d="m 1250.964,343.55 v -77.695 c 0,-2.553 -0.486,-4.952 -1.451,-7.199 -0.969,-2.243 -2.28,-4.194 -3.935,-5.852 -1.661,-1.657 -3.612,-2.97 -5.855,-3.938 -2.242,-0.964 -4.646,-1.45 -7.198,-1.45 h -8.492 c -2.557,0 -4.96,0.486 -7.203,1.45 -2.241,0.969 -4.193,2.281 -5.854,3.938 -1.653,1.657 -2.97,3.609 -3.935,5.852 -0.969,2.247 -1.45,4.646 -1.45,7.199 v 77.695 h -12.74 V 237.474 h 4.248 l 6.938,10.773 c 2.9,-3.938 6.541,-7.061 10.931,-9.376 4.382,-2.312 9.166,-3.471 14.348,-3.471 h 3.211 c 4.282,0 8.32,0.815 12.12,2.434 3.797,1.626 7.111,3.85 9.943,6.682 2.832,2.832 5.06,6.146 6.682,9.947 1.623,3.796 2.436,7.838 2.436,12.12 v 76.968 l -12.744,-10e-4 0,0 z" /><path
         inkscape:connector-curvature="0"
         id="path49"
         d="m 563.109,496.258 c 0,4.278 -0.865,8.198 -2.587,11.757 -1.729,3.561 -4.076,6.613 -7.046,9.17 -2.97,2.558 -6.406,4.539 -10.307,5.955 -3.903,1.416 -7.995,2.12 -12.277,2.12 H 522.4 c -4.283,0 -8.377,-0.812 -12.277,-2.434 -3.903,-1.623 -7.32,-3.843 -10.257,-6.683 -2.936,-2.824 -5.28,-6.14 -7.042,-9.943 -1.76,-3.797 -2.641,-7.838 -2.641,-12.116 v -4.248 l 12.74,-2.074 v 7.042 c 0,2.557 0.531,4.961 1.604,7.202 1.071,2.243 2.503,4.194 4.301,5.854 1.795,1.654 3.866,2.971 6.217,3.936 2.346,0.965 4.799,1.447 7.354,1.447 h 8.492 c 2.557,0 5.006,-0.376 7.355,-1.135 2.347,-0.765 4.437,-1.852 6.27,-3.268 1.829,-1.416 3.28,-3.123 4.351,-5.129 1.068,-1.997 1.604,-4.277 1.604,-6.835 0,-3.797 -0.827,-6.903 -2.488,-9.323 -1.657,-2.419 -3.85,-4.438 -6.575,-6.062 -2.729,-1.623 -5.836,-2.964 -9.322,-4.034 -3.49,-1.071 -7.065,-2.145 -10.725,-3.215 -3.663,-1.071 -7.236,-2.296 -10.724,-3.674 -3.486,-1.387 -6.594,-3.2 -9.323,-5.442 -2.729,-2.242 -4.918,-5.06 -6.575,-8.442 -1.661,-3.384 -2.487,-7.593 -2.487,-12.638 0,-4.278 0.826,-8.196 2.487,-11.757 1.657,-3.561 3.9,-6.613 6.732,-9.17 2.832,-2.557 6.127,-4.539 9.893,-5.955 3.763,-1.416 7.785,-2.128 12.067,-2.128 h 7.459 c 4.283,0 8.324,0.819 12.121,2.435 3.796,1.631 7.115,3.851 9.947,6.682 2.827,2.834 5.056,6.146 6.682,9.951 1.619,3.797 2.434,7.838 2.434,12.117 v 0.413 l -12.744,2.074 v -3.215 c 0,-2.55 -0.481,-4.953 -1.45,-7.195 -0.97,-2.241 -2.277,-4.194 -3.935,-5.854 -1.657,-1.653 -3.608,-2.971 -5.854,-3.936 -2.243,-0.964 -4.644,-1.453 -7.199,-1.453 h -7.459 c -2.553,0 -4.956,0.383 -7.199,1.141 -2.243,0.766 -4.195,1.853 -5.852,3.261 -1.657,1.424 -2.971,3.13 -3.938,5.128 -0.969,2.006 -1.451,4.287 -1.451,6.844 0,3.658 0.831,6.645 2.488,8.955 1.657,2.319 3.85,4.271 6.579,5.855 2.725,1.592 5.833,2.916 9.323,3.986 3.486,1.072 7.042,2.174 10.67,3.314 3.625,1.141 7.18,2.436 10.67,3.889 3.486,1.446 6.594,3.314 9.323,5.588 2.729,2.28 4.922,5.129 6.579,8.551 1.657,3.422 2.484,7.647 2.484,12.691 z" /><path
         inkscape:connector-curvature="0"
         id="path51"
         d="m 626.196,523.194 c -3.865,0 -7.509,-0.729 -10.926,-2.174 -3.421,-1.455 -6.392,-3.461 -8.91,-6.01 -2.521,-2.557 -4.522,-5.525 -6.008,-8.908 -1.485,-3.385 -2.229,-7.013 -2.229,-10.877 v -65.996 h -19.059 v -12.117 h 19.059 v -25.479 l 12.74,-2.073 v 27.555 H 637.8 v 12.117 h -26.937 v 66.614 c 0,2.144 0.398,4.126 1.194,5.955 0.792,1.829 1.879,3.437 3.261,4.813 1.381,1.386 3.004,2.473 4.868,3.27 1.868,0.788 3.869,1.188 6.008,1.188 h 11.604 v 12.123 h -11.602 l 0,-0.001 z" /><path
         inkscape:connector-curvature="0"
         id="path53"
         d="m 727.821,523.194 -7.042,-10.57 c -2.899,3.804 -6.527,6.857 -10.876,9.169 -4.352,2.312 -9.116,3.468 -14.299,3.468 h -3.207 c -4.286,0 -8.328,-0.812 -12.124,-2.434 -3.801,-1.623 -7.114,-3.844 -9.943,-6.684 -2.836,-2.824 -5.062,-6.139 -6.682,-9.942 -1.627,-3.796 -2.435,-7.839 -2.435,-12.116 v -1.041 c 0,-4.277 0.808,-8.32 2.435,-12.116 1.618,-3.797 3.846,-7.11 6.682,-9.942 2.829,-2.832 6.144,-5.061 9.943,-6.683 3.796,-1.622 7.838,-2.435 12.124,-2.435 h 26.932 v -16.372 c 0,-2.549 -0.485,-4.953 -1.449,-7.195 -0.97,-2.241 -2.281,-4.194 -3.936,-5.854 -1.661,-1.653 -3.612,-2.971 -5.854,-3.936 -2.242,-0.964 -4.646,-1.453 -7.199,-1.453 h -7.459 c -2.557,0 -4.956,0.489 -7.202,1.453 -2.243,0.965 -4.194,2.281 -5.852,3.936 -1.657,1.66 -2.971,3.613 -3.936,5.854 -0.969,2.242 -1.45,4.646 -1.45,7.195 v 3.834 l -12.744,-2.074 v -1.032 c 0,-4.279 0.812,-8.32 2.435,-12.117 1.623,-3.805 3.85,-7.117 6.683,-9.95 2.832,-2.832 6.146,-5.052 9.946,-6.683 3.796,-1.615 7.838,-2.435 12.12,-2.435 h 7.459 c 4.283,0 8.32,0.819 12.121,2.435 3.797,1.631 7.109,3.851 9.941,6.683 2.832,2.833 5.061,6.146 6.684,9.95 1.623,3.797 2.434,7.838 2.434,12.117 v 76.971 h -4.25 l 0,-0.001 z m -8.493,-51.384 h -26.932 c -2.561,0 -4.96,0.482 -7.202,1.447 -2.247,0.973 -4.193,2.296 -5.854,3.988 -1.657,1.699 -2.971,3.666 -3.936,5.908 -0.969,2.242 -1.45,4.646 -1.45,7.203 v 4.446 c 0,2.558 0.481,4.96 1.45,7.202 0.965,2.243 2.277,4.194 3.936,5.855 1.661,1.652 3.607,2.97 5.854,3.935 2.242,0.965 4.643,1.447 7.202,1.447 h 8.492 c 2.553,0 4.957,-0.482 7.199,-1.447 2.241,-0.965 4.193,-2.28 5.854,-3.935 1.653,-1.661 2.966,-3.612 3.936,-5.855 0.964,-2.242 1.449,-4.646 1.449,-7.202 l 0.002,-22.992 0,0 z" /><path
         inkscape:connector-curvature="0"
         id="path55"
         d="m 796.193,523.194 c -3.869,0 -7.513,-0.729 -10.927,-2.174 -3.421,-1.455 -6.392,-3.461 -8.909,-6.01 -2.526,-2.557 -4.523,-5.525 -6.009,-8.908 -1.485,-3.385 -2.229,-7.013 -2.229,-10.877 V 429.229 H 749.06 v -12.117 h 19.059 v -25.479 l 12.741,-2.073 v 27.555 h 26.932 v 12.117 H 780.86 v 66.614 c 0,2.144 0.395,4.126 1.189,5.955 0.796,1.829 1.883,3.437 3.265,4.813 1.382,1.386 3.005,2.473 4.868,3.27 1.864,0.788 3.869,1.188 6.009,1.188 h 11.6 v 12.123 h -11.598 l 0,-0.001 z" /><path
         inkscape:connector-curvature="0"
         id="path57"
         d="m 834.419,391.632 v -16.988 h 14.813 v 16.988 h -14.813 z m 1.036,131.562 V 417.113 h 12.74 v 106.081 h -12.74 z" /><path
         inkscape:connector-curvature="0"
         id="path59"
         d="m 946.351,506.201 c -1.623,3.805 -3.85,7.118 -6.682,9.942 -2.832,2.84 -6.146,5.061 -9.943,6.684 -3.801,1.622 -7.838,2.434 -12.12,2.434 h -8.493 c -4.286,0 -8.327,-0.812 -12.124,-2.434 -3.796,-1.623 -7.109,-3.844 -9.941,-6.684 -2.832,-2.824 -5.061,-6.139 -6.684,-9.942 -1.623,-3.796 -2.435,-7.839 -2.435,-12.116 v -47.861 c 0,-4.279 0.812,-8.32 2.435,-12.117 1.623,-3.805 3.852,-7.117 6.684,-9.95 2.831,-2.832 6.146,-5.052 9.941,-6.683 3.797,-1.615 7.838,-2.435 12.124,-2.435 h 8.493 c 4.282,0 8.319,0.819 12.12,2.435 3.797,1.631 7.111,3.851 9.943,6.683 2.831,2.833 5.059,6.146 6.682,9.95 1.623,3.797 2.434,7.838 2.434,12.117 v 47.861 c -0.002,4.278 -0.811,8.32 -2.434,12.116 z m -10.307,-60.705 c 0,-2.549 -0.485,-4.953 -1.45,-7.195 -0.968,-2.241 -2.281,-4.194 -3.936,-5.854 -1.661,-1.653 -3.611,-2.971 -5.854,-3.936 -2.242,-0.964 -4.646,-1.453 -7.198,-1.453 h -8.493 c -2.557,0 -4.96,0.489 -7.202,1.453 -2.242,0.965 -4.193,2.281 -5.854,3.936 -1.653,1.66 -2.97,3.613 -3.936,5.854 -0.968,2.242 -1.449,4.646 -1.449,7.195 v 49.31 c 0,2.557 0.481,4.959 1.449,7.201 0.966,2.243 2.281,4.194 3.936,5.855 1.661,1.652 3.612,2.97 5.854,3.935 2.242,0.966 4.646,1.447 7.202,1.447 h 8.493 c 2.553,0 4.956,-0.481 7.198,-1.447 2.243,-0.965 4.193,-2.28 5.854,-3.935 1.653,-1.661 2.968,-3.612 3.936,-5.855 0.965,-2.242 1.45,-4.646 1.45,-7.201 v -49.31 z" /><path
         inkscape:connector-curvature="0"
         id="path61"
         d="m 1032.385,523.194 v -77.698 c 0,-2.549 -0.482,-4.953 -1.45,-7.195 -0.969,-2.241 -2.277,-4.194 -3.938,-5.854 -1.652,-1.653 -3.608,-2.971 -5.852,-3.936 -2.247,-0.964 -4.646,-1.453 -7.199,-1.453 h -8.496 c -2.557,0 -4.956,0.489 -7.198,1.453 -2.246,0.965 -4.194,2.281 -5.853,3.936 -1.661,1.66 -2.97,3.613 -3.938,5.854 -0.97,2.242 -1.451,4.646 -1.451,7.195 v 77.698 H 974.27 V 417.113 h 4.244 l 6.942,10.776 c 2.9,-3.94 6.545,-7.063 10.931,-9.375 4.386,-2.312 9.17,-3.477 14.344,-3.477 h 3.215 c 4.278,0 8.32,0.818 12.117,2.436 3.8,1.629 7.114,3.85 9.95,6.682 2.828,2.833 5.056,6.146 6.679,9.951 1.622,3.795 2.435,7.838 2.435,12.115 v 76.973 h -12.742 l 0,0 z" /></g></g></svg>